<?xml version="1.0" standalone="no"?>
<!DOCTYPE svg PUBLIC "-//W3C//DTD SVG 20010904//EN"
 "http://www.w3.org/TR/2001/REC-SVG-20010904/DTD/svg10.dtd">
<svg version="1.0" xmlns="http://www.w3.org/2000/svg"
 width="295.000000pt" height="201.000000pt" viewBox="0 0 295.000000 201.000000"
 preserveAspectRatio="xMidYMid meet">

<g transform="translate(0.000000,201.000000) scale(0.100000,-0.100000)"
fill="#000000" stroke="none">
<path d="M1082 1884 c-10 -18 -3 -74 9 -74 8 0 14 41 10 64 -1 5 4 13 11 17
10 7 9 9 -4 9 -9 0 -21 -7 -26 -16z"/>
<path d="M1210 1855 c0 -25 5 -45 10 -45 6 0 10 20 10 45 0 25 -4 45 -10 45
-5 0 -10 -20 -10 -45z"/>
<path d="M1290 1886 c0 -7 -9 -16 -21 -19 -33 -9 -22 -52 14 -53 25 -1 27 1
27 42 0 24 -4 44 -10 44 -5 0 -10 -6 -10 -14z m0 -41 c0 -8 -7 -15 -15 -15 -8
0 -15 7 -15 15 0 8 7 15 15 15 8 0 15 -7 15 -15z"/>
<path d="M1440 1855 c0 -25 5 -45 10 -45 6 0 10 20 10 45 0 25 -4 45 -10 45
-5 0 -10 -20 -10 -45z"/>
<path d="M1868 1863 c5 -59 10 -63 11 -10 1 26 -3 47 -7 47 -4 0 -6 -17 -4
-37z"/>
<path d="M2205 1861 c0 -22 4 -43 8 -47 4 -4 7 5 7 19 0 15 5 27 10 27 6 0 10
-11 10 -25 0 -14 5 -25 10 -25 6 0 10 6 10 14 0 25 -12 46 -26 46 -8 0 -14 7
-14 15 0 8 -3 15 -8 15 -4 0 -7 -18 -7 -39z"/>
<path d="M2613 1855 c0 -27 2 -38 4 -22 2 15 2 37 0 50 -2 12 -4 0 -4 -28z"/>
<path d="M2670 1885 c0 -8 -7 -15 -16 -15 -11 0 -14 -8 -12 -27 2 -21 9 -28
26 -29 20 -1 22 3 22 42 0 24 -4 44 -10 44 -5 0 -10 -7 -10 -15z m0 -40 c0 -8
-4 -15 -10 -15 -5 0 -10 7 -10 15 0 8 5 15 10 15 6 0 10 -7 10 -15z"/>
<path d="M330 1850 c0 -22 5 -40 10 -40 6 0 10 6 10 14 0 8 7 16 15 20 8 3 15
15 15 26 0 15 -7 20 -25 20 -22 0 -25 -4 -25 -40z m35 21 c3 -5 1 -12 -5 -16
-5 -3 -10 1 -10 9 0 18 6 21 15 7z"/>
<path d="M734 1876 c-8 -20 3 -66 15 -66 9 0 6 68 -3 77 -3 3 -8 -2 -12 -11z"/>
<path d="M2156 1882 c-6 -10 -1 -61 8 -69 3 -4 12 -1 18 5 9 9 9 12 0 12 -14
0 -16 27 -3 32 5 2 3 9 -4 15 -8 7 -16 9 -19 5z"/>
<path d="M394 1855 c-4 -8 -1 -22 6 -30 14 -17 50 -20 50 -5 0 6 -9 10 -20 10
-11 0 -20 7 -20 15 0 18 26 20 33 3 3 -8 6 -6 6 5 1 22 -47 24 -55 2z"/>
<path d="M470 1840 c0 -16 5 -30 10 -30 6 0 10 11 10 24 0 13 6 27 13 29 6 3
2 6 -10 6 -19 1 -23 -4 -23 -29z"/>
<path d="M524 1855 c-9 -21 3 -45 21 -45 21 0 19 16 -2 25 -17 6 -17 7 1 21
18 12 18 14 3 14 -10 0 -20 -7 -23 -15z"/>
<path d="M576 1854 c-4 -9 -1 -23 5 -30 13 -16 49 -19 49 -4 0 6 -7 10 -15 10
-8 0 -15 7 -15 15 0 18 16 20 23 3 3 -8 6 -6 6 5 1 22 -44 23 -53 1z"/>
<path d="M661 1838 c2 -31 2 -31 6 -5 5 31 23 37 23 8 0 -23 16 -36 25 -21 12
20 -6 50 -31 50 -21 0 -24 -4 -23 -32z"/>
<path d="M793 1864 c9 -3 17 -12 17 -20 0 -11 -6 -13 -20 -9 -15 5 -18 3 -14
-8 3 -8 16 -14 30 -14 21 0 25 4 22 26 -2 20 -9 26 -28 28 -14 1 -18 0 -7 -3z"/>
<path d="M847 1863 c-11 -10 -8 -73 3 -73 6 0 9 3 8 8 -2 4 2 8 7 9 6 0 9 -3
7 -9 -4 -14 21 -4 26 10 2 7 -7 16 -20 21 -15 7 -17 10 -7 10 9 1 19 8 23 16
4 11 -1 15 -18 15 -12 0 -26 -3 -29 -7z m30 -9 c-3 -3 -12 -4 -19 -1 -8 3 -5
6 6 6 11 1 17 -2 13 -5z"/>
<path d="M915 1860 c-11 -17 5 -50 25 -50 10 0 22 5 25 10 3 6 -3 10 -14 10
-12 0 -21 7 -21 15 0 8 7 15 16 15 8 0 12 -4 9 -10 -3 -5 -1 -10 5 -10 7 0 10
6 8 13 -6 16 -44 21 -53 7z"/>
<path d="M1004 1855 c-10 -25 22 -53 44 -39 9 6 17 20 17 30 0 25 -52 33 -61
9z m44 -13 c2 -7 -3 -12 -12 -12 -9 0 -16 7 -16 16 0 17 22 14 28 -4z"/>
<path d="M1147 1857 c-9 -24 17 -52 39 -42 18 8 17 9 -3 12 -13 3 -23 11 -23
19 0 16 26 19 33 4 3 -6 4 -5 3 2 -4 18 -42 22 -49 5z"/>
<path d="M1323 1854 c-8 -22 21 -49 44 -39 16 8 16 9 -4 12 -26 5 -32 33 -7
33 8 0 12 -4 9 -10 -3 -5 -1 -10 4 -10 6 0 11 7 11 15 0 20 -49 20 -57 -1z"/>
<path d="M1401 1838 c2 -28 2 -29 6 -8 3 14 10 28 17 32 7 5 5 8 -6 8 -14 0
-18 -8 -17 -32z"/>
<path d="M1485 1850 c4 -14 7 -34 6 -44 0 -16 2 -17 13 -5 18 20 37 69 27 69
-5 0 -12 -8 -16 -17 -6 -17 -8 -17 -22 2 -15 19 -15 19 -8 -5z"/>
<path d="M1580 1830 l0 -40 25 16 c15 10 25 26 25 40 0 19 -5 24 -25 24 -23 0
-25 -4 -25 -40z m30 14 c0 -8 -5 -12 -10 -9 -6 4 -8 11 -5 16 9 14 15 11 15
-7z"/>
<path d="M1646 1854 c-4 -9 -1 -23 5 -30 13 -16 49 -19 49 -4 0 6 -9 10 -20
10 -11 0 -20 7 -20 15 0 18 26 20 33 3 3 -8 6 -6 6 5 1 22 -44 23 -53 1z"/>
<path d="M1724 1855 c-10 -25 4 -47 28 -43 17 2 24 11 26 31 3 23 0 27 -23 27
-14 0 -28 -7 -31 -15z m46 -10 c0 -8 -9 -15 -20 -15 -11 0 -20 7 -20 15 0 8 9
15 20 15 11 0 20 -7 20 -15z"/>
<path d="M1796 1837 c1 -49 2 -50 30 -23 31 28 27 56 -8 56 -19 0 -23 -5 -22
-33z m30 -4 c-10 -10 -19 5 -10 18 6 11 8 11 12 0 2 -7 1 -15 -2 -18z"/>
<path d="M1896 1854 c-4 -9 -1 -23 5 -30 13 -16 49 -19 49 -4 0 6 -7 10 -15
10 -8 0 -15 7 -15 15 0 18 16 20 23 3 3 -8 6 -6 6 5 1 22 -44 23 -53 1z"/>
<path d="M2012 1840 c0 -19 2 -27 5 -17 2 9 2 25 0 35 -3 9 -5 1 -5 -18z"/>
<path d="M2041 1838 c2 -31 2 -31 6 -5 5 32 26 31 31 -1 5 -32 24 -27 20 6 -2
21 -9 28 -30 30 -26 3 -28 1 -27 -30z"/>
<path d="M2274 1855 c-9 -23 3 -45 26 -45 11 0 20 5 20 10 0 6 -6 10 -14 10
-8 0 -16 7 -20 15 -3 9 0 15 8 15 8 0 16 -6 19 -12 2 -7 8 -10 12 -6 11 11 -4
28 -26 28 -11 0 -22 -7 -25 -15z"/>
<path d="M2381 1840 c11 -31 29 -41 29 -15 0 8 -4 15 -10 15 -5 0 -10 7 -10
15 0 8 -4 15 -9 15 -6 0 -6 -12 0 -30z"/>
<path d="M2410 1858 c1 -16 28 -53 34 -47 2 2 7 18 10 34 5 23 4 25 -3 10 -8
-18 -9 -19 -16 -2 -8 20 -25 23 -25 5z"/>
<path d="M2474 1855 c-10 -25 22 -53 44 -39 9 6 17 20 17 30 0 25 -52 33 -61
9z m46 -10 c0 -8 -7 -15 -15 -15 -8 0 -15 7 -15 15 0 8 7 15 15 15 8 0 15 -7
15 -15z"/>
<path d="M2550 1840 c0 -16 5 -30 10 -30 6 0 10 11 10 24 0 13 6 27 13 29 6 3
2 6 -10 6 -19 1 -23 -4 -23 -29z"/>
<path d="M159 1663 c0 -4 -2 -19 -3 -31 -3 -26 19 -41 36 -24 8 8 4 9 -13 6
-20 -5 -21 -4 -9 6 11 9 12 13 2 17 -6 2 -9 9 -6 14 3 6 12 5 22 -3 13 -11 14
-11 10 2 -5 16 -37 27 -39 13z"/>
<path d="M120 1636 c0 -13 -6 -27 -12 -29 -7 -3 -4 -6 8 -6 17 -1 20 4 16 29
-5 36 -12 39 -12 6z"/>
<path d="M220 1629 c0 -5 5 -7 10 -4 6 3 10 8 10 11 0 2 -4 4 -10 4 -5 0 -10
-5 -10 -11z"/>
<path d="M266 1608 c3 -5 10 -6 15 -3 13 9 11 12 -6 12 -8 0 -12 -4 -9 -9z"/>
<path d="M117 1503 c8 -52 13 -54 13 -5 0 23 -4 42 -9 42 -6 0 -7 -17 -4 -37z"/>
<path d="M159 1523 c-12 -16 -12 -17 1 -7 8 6 22 14 30 17 13 5 12 6 -1 6 -9
1 -23 -7 -30 -16z"/>
<path d="M210 1521 c0 -6 4 -13 10 -16 6 -3 7 1 4 9 -7 18 -14 21 -14 7z"/>
<path d="M181 1493 c7 -10 15 -20 16 -22 2 -2 3 3 3 11 0 9 -7 19 -16 22 -15
6 -15 4 -3 -11z"/>
<path d="M111 1393 c0 -5 4 -17 9 -28 8 -18 9 -17 9 8 1 15 -3 27 -9 27 -5 0
-10 -3 -9 -7z"/>
<path d="M178 1365 c2 -19 6 -35 8 -35 2 0 4 16 4 35 0 19 -4 35 -8 35 -4 0
-6 -16 -4 -35z"/>
<path d="M210 1381 c0 -6 4 -13 10 -16 6 -3 7 1 4 9 -7 18 -14 21 -14 7z"/>
<path d="M260 1338 c0 -4 4 -8 9 -8 6 0 12 4 15 8 3 5 -1 9 -9 9 -8 0 -15 -4
-15 -9z"/>
<path d="M108 1333 c6 -2 18 -2 25 0 6 3 1 5 -13 5 -14 0 -19 -2 -12 -5z"/>
<path d="M2473 1283 c9 -2 23 -2 30 0 6 3 -1 5 -18 5 -16 0 -22 -2 -12 -5z"/>
<path d="M118 1225 c2 -19 6 -35 8 -35 2 0 4 16 4 35 0 19 -4 35 -8 35 -4 0
-6 -16 -4 -35z"/>
<path d="M166 1252 c6 -4 14 -14 17 -22 4 -10 6 -8 6 8 1 15 -5 22 -16 22 -11
0 -14 -3 -7 -8z"/>
<path d="M210 1241 c0 -10 19 -25 25 -20 1 2 -3 10 -11 17 -8 7 -14 8 -14 3z"/>
<path d="M161 1116 c-19 -23 -10 -61 14 -61 14 0 21 8 23 26 4 33 -20 56 -37
35z m29 -31 c0 -16 -6 -25 -15 -25 -9 0 -15 9 -15 25 0 16 6 25 15 25 9 0 15
-9 15 -25z"/>
<path d="M115 1085 c0 -19 5 -35 10 -35 7 0 9 15 7 35 -2 19 -7 35 -11 35 -3
0 -6 -16 -6 -35z"/>
<path d="M266 1058 c3 -5 10 -6 15 -3 13 9 11 12 -6 12 -8 0 -12 -4 -9 -9z"/>
<path d="M1998 963 c6 -2 18 -2 25 0 6 3 1 5 -13 5 -14 0 -19 -2 -12 -5z"/>
<path d="M154 939 c-10 -17 13 -36 27 -22 12 12 4 33 -11 33 -5 0 -12 -5 -16
-11z m26 -9 c0 -5 -4 -10 -10 -10 -5 0 -10 5 -10 10 0 6 5 10 10 10 6 0 10 -4
10 -10z"/>
<path d="M1974 675 c0 -154 2 -216 3 -137 2 79 2 205 0 280 -1 75 -3 11 -3
-143z"/>
<path d="M1853 860 c0 -36 2 -50 4 -32 2 17 2 47 0 65 -2 17 -4 3 -4 -33z"/>
<path d="M159 848 c-1 -2 -3 -16 -4 -33 -2 -16 -1 -24 2 -17 2 6 9 12 14 12
14 0 11 -28 -3 -33 -8 -4 -9 -6 -2 -6 6 -1 17 5 24 13 9 12 7 17 -9 28 -26 16
-27 25 -3 31 16 4 16 5 0 6 -10 0 -19 0 -19 -1z"/>
<path d="M1513 843 c9 -2 25 -2 35 0 9 3 1 5 -18 5 -19 0 -27 -2 -17 -5z"/>
<path d="M1671 824 c0 -11 3 -14 6 -6 3 7 2 16 -1 19 -3 4 -6 -2 -5 -13z"/>
<path d="M256 785 c4 -8 11 -15 16 -15 6 0 5 6 -2 15 -7 8 -14 15 -16 15 -2 0
-1 -7 2 -15z"/>
<path d="M1033 783 c9 -2 25 -2 35 0 9 3 1 5 -18 5 -19 0 -27 -2 -17 -5z"/>
<path d="M1671 764 c0 -11 3 -14 6 -6 3 7 2 16 -1 19 -3 4 -6 -2 -5 -13z"/>
<path d="M1852 755 c0 -16 2 -22 5 -12 2 9 2 23 0 30 -3 6 -5 -1 -5 -18z"/>
<path d="M171 704 c0 -11 3 -14 6 -6 3 7 2 16 -1 19 -3 4 -6 -2 -5 -13z"/>
<path d="M422 695 c0 -16 2 -22 5 -12 2 9 2 23 0 30 -3 6 -5 -1 -5 -18z"/>
<path d="M1671 704 c0 -11 3 -14 6 -6 3 7 2 16 -1 19 -3 4 -6 -2 -5 -13z"/>
<path d="M155 660 c3 -5 13 -10 21 -10 8 0 14 5 14 10 0 6 -9 10 -21 10 -11 0
-17 -4 -14 -10z"/>
<path d="M1673 620 c0 -30 2 -43 4 -27 2 15 2 39 0 55 -2 15 -4 2 -4 -28z"/>
<path d="M260 646 c7 -7 13 -7 20 0 6 6 3 10 -10 10 -13 0 -16 -4 -10 -10z"/>
<path d="M424 530 c0 -74 1 -105 3 -67 2 37 2 97 0 135 -2 37 -3 6 -3 -68z"/>
<path d="M1853 610 c0 -30 2 -43 4 -27 2 15 2 39 0 55 -2 15 -4 2 -4 -28z"/>
<path d="M168 535 c-25 -34 -22 -43 3 -11 12 15 20 29 18 31 -2 1 -12 -7 -21
-20z"/>
<path d="M1851 534 c0 -11 3 -14 6 -6 3 7 2 16 -1 19 -3 4 -6 -2 -5 -13z"/>
<path d="M1672 500 c0 -14 2 -19 5 -12 2 6 2 18 0 25 -3 6 -5 1 -5 -13z"/>
<path d="M1853 450 c0 -30 2 -43 4 -27 2 15 2 39 0 55 -2 15 -4 2 -4 -28z"/>
<path d="M155 429 c-4 -6 -4 -13 -1 -16 3 -4 6 -1 6 6 0 28 20 -3 21 -32 0
-30 1 -31 10 -9 14 37 -17 82 -36 51z"/>
<path d="M412 248 c-7 -7 -12 -15 -12 -19 0 -15 32 -39 51 -39 25 0 25 31 -1
53 -24 20 -23 20 -38 5z m38 -23 c7 -9 10 -19 6 -22 -8 -9 -38 9 -44 25 -5 17
23 15 38 -3z"/>
<path d="M653 245 c-7 -8 -13 -19 -13 -25 0 -15 46 -34 65 -26 15 5 14 9 -7
35 -27 34 -29 35 -45 16z m35 -17 c16 -16 15 -28 -2 -28 -17 0 -38 24 -29 33
9 10 17 9 31 -5z"/>
<path d="M893 240 c-10 -15 -10 -22 3 -35 22 -22 30 -19 10 4 -23 26 -2 39 25
15 15 -13 16 -19 7 -26 -9 -5 -10 -8 -1 -8 23 0 22 18 -2 44 -29 31 -27 31
-42 6z"/>
<path d="M1133 241 c-7 -11 -8 -23 -1 -34 10 -19 -2 -23 -19 -6 -13 13 -33 4
-33 -15 0 -7 9 -22 21 -35 17 -18 24 -20 35 -10 8 7 12 20 9 30 -4 12 -1 19 6
19 8 0 6 7 -5 19 -11 12 -14 21 -7 26 15 8 31 -2 41 -29 l9 -21 0 21 c1 12 -9
28 -22 37 -21 14 -24 13 -34 -2z m-28 -50 c3 -5 1 -12 -5 -16 -5 -3 -10 1 -10
9 0 18 6 21 15 7z m35 -31 c0 -5 -7 -10 -15 -10 -8 0 -15 5 -15 10 0 6 7 10
15 10 8 0 15 -4 15 -10z"/>
<path d="M1371 247 c-6 -8 -8 -22 -5 -32 6 -14 3 -16 -13 -11 -29 9 -47 -15
-29 -39 12 -17 16 -18 32 -5 16 14 17 13 12 -8 -4 -13 -2 -20 4 -16 5 4 8 19
6 33 -4 24 -1 27 19 23 29 -6 32 27 4 52 -15 14 -20 14 -30 3z m36 -22 c3 -9
3 -19 -1 -22 -7 -7 -36 16 -36 28 0 15 30 10 37 -6z m-52 -43 c0 -18 -20 -15
-23 4 -3 10 1 15 10 12 7 -3 13 -10 13 -16z"/>
<path d="M1610 252 c0 -4 9 -13 20 -20 33 -20 24 -33 -20 -28 -22 3 -42 1 -45
-4 -3 -6 0 -7 8 -4 8 3 17 1 21 -4 3 -5 19 -7 36 -4 35 5 40 29 10 55 -22 19
-30 21 -30 9z"/>
<path d="M1842 248 c-18 -18 -14 -36 11 -49 22 -12 22 -12 3 10 -11 11 -16 24
-12 28 11 11 41 -13 40 -31 -1 -9 2 -16 7 -16 15 0 10 24 -10 48 -22 26 -23
26 -39 10z"/>
<path d="M2081 243 c-16 -17 -6 -43 20 -51 10 -4 9 1 -4 16 -13 13 -15 22 -7
27 15 9 42 -15 36 -32 -6 -14 10 -18 18 -5 3 5 -7 20 -22 35 -24 23 -28 24
-41 10z"/>
<path d="M2323 241 c-12 -19 0 -51 19 -51 6 0 3 9 -6 19 -12 13 -14 21 -6 26
15 9 42 -15 36 -32 -3 -7 -1 -13 4 -13 19 0 9 35 -13 52 -22 15 -24 15 -34 -1z"/>
<path d="M2560 245 c-13 -16 2 -55 22 -55 6 0 3 9 -7 20 -10 11 -15 23 -11 27
11 11 41 -13 40 -31 -1 -9 2 -16 7 -16 19 0 8 38 -15 53 -21 14 -26 14 -36 2z"/>
<path d="M2800 244 c-15 -17 -5 -44 21 -53 9 -3 8 1 -4 13 -17 17 -23 36 -11
36 18 0 45 -24 40 -36 -3 -8 -1 -14 4 -14 18 0 10 26 -13 49 -22 20 -25 20
-37 5z"/>
<path d="M359 194 c-10 -13 -10 -17 2 -25 8 -4 22 -6 32 -3 16 5 18 2 12 -18
-7 -21 -6 -22 9 -7 10 9 14 22 10 32 -7 20 -30 23 -37 5 -2 -7 -8 -10 -12 -6
-4 4 -2 14 5 23 7 8 8 15 2 15 -5 0 -15 -7 -23 -16z"/>
<path d="M606 195 c-3 -8 -3 -22 0 -30 5 -12 2 -14 -12 -8 -17 6 -17 5 -5 -10
11 -14 11 -17 0 -18 -8 -1 -18 -1 -24 1 -5 1 -5 -4 2 -11 10 -9 15 -10 27 0
11 9 15 9 19 -1 2 -7 2 -3 0 10 -3 19 0 22 21 16 27 -6 39 6 30 30 -7 19 -30
21 -37 4 -2 -7 -8 -10 -12 -6 -4 4 -2 14 5 23 7 8 8 15 2 15 -5 0 -12 -7 -16
-15z m54 -35 c0 -5 -7 -10 -15 -10 -8 0 -15 5 -15 10 0 6 7 10 15 10 8 0 15
-4 15 -10z"/>
<path d="M842 198 c-7 -7 -12 -16 -12 -22 0 -5 7 -1 14 10 14 18 15 18 26 -13
7 -18 16 -33 21 -33 5 0 1 16 -8 35 -18 38 -23 41 -41 23z"/>
<path d="M2048 199 c6 -7 12 -26 12 -41 0 -31 11 -36 30 -13 11 13 10 14 -4 9
-12 -5 -16 0 -16 19 0 14 -7 28 -17 32 -15 5 -16 4 -5 -6z"/>
<path d="M2269 192 c-13 -15 -12 -16 3 -4 18 14 34 0 22 -20 -4 -7 -3 -8 4 -4
21 13 34 -5 15 -20 -10 -7 -13 -14 -7 -14 11 0 34 20 34 31 0 4 -13 17 -29 28
-27 20 -30 20 -42 3z"/>
<path d="M2520 180 c0 -26 -3 -31 -17 -26 -15 6 -16 5 -1 -11 8 -10 18 -25 22
-33 3 -8 4 -4 1 10 -3 21 0 26 16 27 12 1 23 4 25 6 7 7 -8 37 -18 37 -6 0 -8
-7 -4 -15 3 -8 0 -15 -5 -15 -6 0 -9 9 -6 20 3 11 1 23 -4 26 -5 3 -9 -9 -9
-26z"/>
<path d="M2750 195 c-17 -20 -2 -38 26 -31 26 7 31 -3 12 -22 -9 -9 -9 -12 -1
-12 17 0 27 40 13 54 -10 8 -14 8 -17 -1 -8 -21 -26 -15 -20 7 6 24 4 25 -13
5z"/>
<path d="M1800 185 c0 -8 2 -15 4 -15 2 0 6 7 10 15 3 8 1 15 -4 15 -6 0 -10
-7 -10 -15z"/>
<path d="M1560 171 c0 -10 39 -36 45 -29 2 2 -8 11 -21 21 -13 10 -24 13 -24
8z"/>
<path d="M1821 173 c0 -5 4 -16 8 -26 6 -16 9 -17 18 -5 9 11 8 16 -8 26 -10
7 -19 9 -18 5z"/>
<path d="M829 146 c9 -11 8 -15 -3 -19 -9 -4 -20 1 -25 11 -6 9 -10 13 -11 7
0 -5 5 -17 10 -25 8 -12 13 -13 30 -2 17 10 20 10 20 -5 0 -9 3 -14 6 -10 10
9 -6 45 -23 51 -13 5 -14 4 -4 -8z"/>
<path d="M1065 150 c3 -5 3 -15 -1 -22 -5 -7 -11 -5 -21 7 -12 17 -13 17 -13
2 0 -21 32 -36 38 -19 2 7 8 12 14 12 6 0 8 -7 4 -15 -3 -8 -1 -15 4 -15 15 0
12 27 -6 44 -17 18 -28 21 -19 6z"/>
<path d="M1303 149 c1 -8 -2 -14 -8 -14 -5 0 -9 3 -7 8 1 4 -2 7 -8 7 -5 0
-10 -7 -10 -15 0 -19 32 -33 38 -17 2 7 8 12 14 12 6 0 7 -8 3 -17 -5 -15 -4
-16 7 -5 10 10 8 16 -9 33 -14 14 -21 17 -20 8z"/>
<path d="M1551 144 c9 -10 19 -26 22 -34 4 -11 6 -9 6 5 1 11 -9 26 -21 34
-22 13 -22 13 -7 -5z"/>
<path d="M1797 136 c20 -26 27 -28 17 -3 -3 8 -12 18 -20 21 -11 4 -10 0 3
-18z"/>
<path d="M1993 144 c-3 -9 2 -23 12 -32 16 -16 17 -16 6 6 -7 12 -9 27 -6 32
3 6 4 10 0 10 -3 0 -8 -7 -12 -16z"/>
<path d="M2033 131 c8 -23 13 -28 15 -16 2 10 -3 25 -12 33 -14 15 -15 13 -3
-17z"/>
<path d="M2263 142 c9 -10 17 -25 17 -32 0 -7 3 -11 6 -7 10 10 -6 45 -23 52
-15 5 -15 4 0 -13z"/>
<path d="M2703 144 c-3 -8 2 -23 11 -32 9 -10 16 -12 16 -5 0 7 -5 15 -11 18
-6 4 -8 13 -5 21 3 8 3 14 0 14 -2 0 -7 -7 -11 -16z"/>
<path d="M2746 138 c10 -14 21 -24 23 -22 3 3 -6 15 -18 27 l-24 22 19 -27z"/>
<path d="M320 145 c0 -5 5 -17 11 -25 8 -11 12 -12 16 -2 7 17 21 15 26 -5 4
-14 5 -13 6 4 1 27 -18 41 -30 22 -8 -12 -11 -12 -19 1 -5 8 -10 11 -10 5z"/>
<path d="M1510 142 c0 -13 29 -48 30 -35 0 6 -5 15 -10 18 -6 4 -8 11 -5 16 4
5 1 9 -4 9 -6 0 -11 -4 -11 -8z"/>
<path d="M1750 144 c0 -6 7 -19 15 -30 8 -10 14 -14 14 -9 0 6 -6 19 -14 29
-8 11 -15 15 -15 10z"/>
<path d="M2231 140 c0 -8 4 -22 9 -30 12 -18 12 -2 0 25 -6 13 -9 15 -9 5z"/>
<path d="M2460 138 c0 -8 7 -21 15 -28 19 -16 19 -1 0 24 -12 16 -15 17 -15 4z"/>
<path d="M1475 110 c-3 -5 1 -10 9 -10 10 0 16 -9 16 -25 0 -28 12 -32 30 -10
11 13 10 14 -4 9 -10 -4 -16 -1 -16 9 0 20 -26 41 -35 27z"/>
<path d="M1715 110 c-3 -5 1 -10 9 -10 9 0 16 -8 16 -19 0 -27 15 -34 30 -16
11 13 10 14 -4 9 -10 -4 -16 -1 -16 9 0 20 -26 41 -35 27z"/>
<path d="M1956 111 c-3 -5 3 -11 15 -14 16 -4 18 -3 8 9 -13 16 -16 17 -23 5z"/>
<path d="M2196 111 c-4 -6 0 -11 8 -11 10 0 16 -9 16 -25 0 -14 5 -25 11 -25
13 0 2 39 -16 58 -9 10 -15 11 -19 3z"/>
<path d="M2435 110 c-3 -5 1 -10 10 -10 9 0 13 5 10 10 -3 6 -8 10 -10 10 -2
0 -7 -4 -10 -10z"/>
<path d="M2670 111 c0 -6 5 -11 10 -11 6 0 10 -11 10 -25 0 -28 12 -32 30 -10
11 13 10 14 -4 9 -10 -4 -16 -1 -16 9 0 8 -7 20 -15 27 -10 9 -15 9 -15 1z"/>
<path d="M303 92 c16 -10 25 -23 22 -31 -5 -11 -3 -12 10 -1 14 12 13 15 -12
31 -15 11 -32 19 -38 19 -5 0 2 -8 18 -18z"/>
<path d="M543 87 c12 -13 26 -21 30 -19 9 4 -31 42 -44 42 -5 0 2 -10 14 -23z"/>
<path d="M777 93 c11 -10 18 -25 15 -33 -5 -13 -3 -13 11 -1 15 12 15 15 -7
32 -30 24 -46 25 -19 2z"/>
<path d="M1011 94 c9 -10 18 -25 21 -33 3 -11 6 -11 15 1 10 11 6 18 -20 33
-31 18 -32 18 -16 -1z"/>
<path d="M1248 94 c12 -8 22 -22 22 -31 0 -13 3 -13 15 -3 14 12 12 15 -12 31
-34 23 -57 25 -25 3z"/>
<path d="M1987 62 c3 -7 9 -10 12 -5 3 4 10 11 15 15 4 4 -1 6 -12 5 -12 -1
-18 -6 -15 -15z"/>
<path d="M2465 69 c-11 -16 -1 -19 13 -3 7 8 8 14 3 14 -5 0 -13 -5 -16 -11z"/>
</g>
</svg>
